<?xml version="1.0" encoding="UTF-8" standalone="no"?><!DOCTYPE svg PUBLIC "-//W3C//DTD SVG 1.1//EN" "http://www.w3.org/Graphics/SVG/1.1/DTD/svg11.dtd"><svg width="100%" height="100%" viewBox="0 0 896 284" version="1.1" xmlns="http://www.w3.org/2000/svg" xmlns:xlink="http://www.w3.org/1999/xlink" xml:space="preserve" style="fill-rule:evenodd;clip-rule:evenodd;stroke-linejoin:round;stroke-miterlimit:1.41421;"><path d="M360.434,275.308l3.496,0.454c-0.382,2.41 -1.36,4.296 -2.933,5.659c-1.573,1.362 -3.506,2.044 -5.796,2.044c-2.871,0 -5.178,-0.939 -6.923,-2.815c-1.744,-1.876 -2.616,-4.565 -2.616,-8.067c0,-2.265 0.375,-4.246 1.125,-5.945c0.751,-1.698 1.893,-2.972 3.427,-3.821c1.534,-0.85 3.202,-1.274 5.006,-1.274c2.278,0 4.141,0.576 5.589,1.728c1.449,1.152 2.377,2.788 2.785,4.908l-3.456,0.533c-0.329,-1.409 -0.912,-2.469 -1.748,-3.18c-0.836,-0.711 -1.847,-1.066 -3.031,-1.066c-1.791,0 -3.246,0.641 -4.365,1.925c-1.119,1.284 -1.679,3.315 -1.679,6.093c0,2.817 0.54,4.865 1.62,6.142c1.079,1.277 2.488,1.916 4.226,1.916c1.396,0 2.561,-0.428 3.496,-1.284c0.934,-0.856 1.527,-2.172 1.777,-3.95Zm-29.308,7.683l-3.713,0c-0.369,-0.738 -0.606,-1.6 -0.711,-2.588c-1.317,1.12 -2.584,1.91 -3.802,2.37c-1.218,0.461 -2.524,0.692 -3.92,0.692c-2.304,0 -4.075,-0.563 -5.313,-1.689c-1.237,-1.126 -1.856,-2.564 -1.856,-4.315c0,-1.027 0.234,-1.965 0.701,-2.815c0.468,-0.849 1.08,-1.53 1.837,-2.044c0.757,-0.513 1.609,-0.902 2.557,-1.165c0.698,-0.184 1.751,-0.362 3.16,-0.533c2.871,-0.342 4.984,-0.751 6.34,-1.225c0.013,-0.487 0.02,-0.796 0.02,-0.928c0,-1.448 -0.336,-2.468 -1.008,-3.061c-0.908,-0.803 -2.258,-1.205 -4.048,-1.205c-1.672,0 -2.907,0.293 -3.703,0.879c-0.797,0.586 -1.386,1.623 -1.768,3.111l-3.476,-0.474c0.316,-1.488 0.836,-2.689 1.56,-3.605c0.725,-0.915 1.771,-1.619 3.141,-2.113c1.369,-0.493 2.955,-0.74 4.759,-0.74c1.791,0 3.246,0.21 4.365,0.632c1.119,0.421 1.942,0.951 2.469,1.59c0.526,0.638 0.895,1.445 1.105,2.419c0.119,0.605 0.178,1.698 0.178,3.278l0,4.74c0,3.305 0.076,5.395 0.227,6.271c0.152,0.875 0.451,1.714 0.899,2.518Zm205.394,-10.487c0,-3.884 1.08,-6.761 3.239,-8.631c1.804,-1.553 4.002,-2.33 6.596,-2.33c2.884,0 5.24,0.944 7.07,2.834c1.831,1.889 2.746,4.499 2.746,7.83c0,2.699 -0.405,4.823 -1.215,6.37c-0.81,1.547 -1.988,2.748 -3.535,3.604c-1.547,0.856 -3.236,1.284 -5.066,1.284c-2.936,0 -5.309,-0.942 -7.119,-2.825c-1.811,-1.882 -2.716,-4.595 -2.716,-8.136Zm-17.893,10.487l-3.298,0l0,-28.953l3.555,0l0,10.329c1.501,-1.883 3.416,-2.824 5.747,-2.824c1.29,0 2.511,0.26 3.663,0.78c1.152,0.52 2.1,1.251 2.844,2.192c0.744,0.941 1.327,2.077 1.748,3.407c0.421,1.33 0.632,2.752 0.632,4.266c0,3.594 -0.889,6.372 -2.666,8.334c-1.778,1.962 -3.911,2.943 -6.399,2.943c-2.475,0 -4.417,-1.034 -5.826,-3.101l0,2.627Zm-11.415,-6.755l3.673,0.455c-0.579,2.146 -1.652,3.811 -3.219,4.996c-1.567,1.185 -3.568,1.778 -6.004,1.778c-3.068,0 -5.5,-0.945 -7.297,-2.834c-1.797,-1.89 -2.696,-4.54 -2.696,-7.95c0,-3.528 0.908,-6.267 2.725,-8.215c1.817,-1.949 4.174,-2.923 7.071,-2.923c2.804,0 5.095,0.954 6.873,2.863c1.777,1.909 2.666,4.595 2.666,8.058c0,0.211 -0.007,0.527 -0.02,0.948l-15.642,0c0.132,2.304 0.784,4.068 1.956,5.293c1.171,1.224 2.633,1.837 4.384,1.837c1.303,0 2.416,-0.343 3.338,-1.027c0.921,-0.685 1.652,-1.778 2.192,-3.279Zm-68.096,-0.928l3.495,0.454c-0.381,2.41 -1.359,4.296 -2.932,5.659c-1.574,1.362 -3.506,2.044 -5.797,2.044c-2.87,0 -5.177,-0.939 -6.922,-2.815c-1.744,-1.876 -2.617,-4.565 -2.617,-8.067c0,-2.265 0.375,-4.246 1.126,-5.945c0.75,-1.698 1.893,-2.972 3.426,-3.821c1.534,-0.85 3.203,-1.274 5.007,-1.274c2.278,0 4.141,0.576 5.589,1.728c1.448,1.152 2.377,2.788 2.785,4.908l-3.456,0.533c-0.33,-1.409 -0.912,-2.469 -1.748,-3.18c-0.836,-0.711 -1.847,-1.066 -3.032,-1.066c-1.79,0 -3.245,0.641 -4.364,1.925c-1.12,1.284 -1.679,3.315 -1.679,6.093c0,2.817 0.54,4.865 1.619,6.142c1.08,1.277 2.489,1.916 4.227,1.916c1.395,0 2.561,-0.428 3.495,-1.284c0.935,-0.856 1.528,-2.172 1.778,-3.95Zm-32.725,7.683l-3.18,0l0,-3.081c-1.632,2.37 -3.851,3.555 -6.655,3.555c-1.238,0 -2.393,-0.237 -3.466,-0.711c-1.073,-0.474 -1.87,-1.07 -2.39,-1.788c-0.52,-0.717 -0.885,-1.596 -1.096,-2.636c-0.145,-0.698 -0.217,-1.804 -0.217,-3.318l0,-12.995l3.555,0l0,11.632c0,1.857 0.072,3.107 0.217,3.752c0.224,0.935 0.698,1.669 1.422,2.203c0.724,0.533 1.619,0.799 2.686,0.799c1.066,0 2.067,-0.273 3.002,-0.819c0.934,-0.547 1.596,-1.29 1.985,-2.232c0.388,-0.941 0.582,-2.307 0.582,-4.098l0,-11.237l3.555,0l0,20.974Zm170.971,0l-3.555,0l0,-20.974l3.199,0l0,2.982c1.541,-2.304 3.766,-3.456 6.676,-3.456c1.264,0 2.425,0.227 3.485,0.681c1.06,0.454 1.854,1.05 2.38,1.787c0.527,0.738 0.895,1.613 1.106,2.627c0.132,0.658 0.198,1.81 0.198,3.456l0,12.897l-3.555,0l0,-12.759c0,-1.448 -0.139,-2.531 -0.415,-3.248c-0.276,-0.718 -0.767,-1.291 -1.471,-1.719c-0.705,-0.427 -1.531,-0.641 -2.479,-0.641c-1.514,0 -2.821,0.48 -3.92,1.441c-1.1,0.961 -1.649,2.785 -1.649,5.471l0,11.455Zm-13.509,0l-3.555,0l0,-20.974l3.2,0l0,3.179c0.816,-1.487 1.57,-2.468 2.261,-2.942c0.691,-0.474 1.452,-0.711 2.281,-0.711c1.198,0 2.416,0.382 3.654,1.145l-1.225,3.298c-0.869,-0.513 -1.738,-0.77 -2.607,-0.77c-0.777,0 -1.474,0.234 -2.093,0.701c-0.619,0.468 -1.06,1.116 -1.323,1.946c-0.395,1.263 -0.593,2.646 -0.593,4.147l0,10.981Zm-193.327,0l-3.555,0l0,-28.953l3.555,0l0,10.388c1.659,-1.922 3.752,-2.883 6.28,-2.883c1.554,0 2.904,0.306 4.049,0.918c1.145,0.612 1.965,1.458 2.459,2.538c0.494,1.079 0.74,2.646 0.74,4.7l0,13.292l-3.554,0l0,-13.292c0,-1.777 -0.386,-3.071 -1.156,-3.881c-0.77,-0.809 -1.86,-1.214 -3.268,-1.214c-1.054,0 -2.044,0.273 -2.973,0.819c-0.928,0.547 -1.589,1.287 -1.984,2.222c-0.395,0.935 -0.593,2.225 -0.593,3.871l0,11.475Zm78.682,0l-3.555,0l0,-28.953l3.555,0l0,10.388c1.659,-1.922 3.752,-2.883 6.28,-2.883c1.554,0 2.903,0.306 4.049,0.918c1.145,0.612 1.965,1.458 2.459,2.538c0.493,1.079 0.74,2.646 0.74,4.7l0,13.292l-3.555,0l0,-13.292c0,-1.777 -0.385,-3.071 -1.155,-3.881c-0.77,-0.809 -1.86,-1.214 -3.269,-1.214c-1.053,0 -2.044,0.273 -2.972,0.819c-0.928,0.547 -1.59,1.287 -1.985,2.222c-0.395,0.935 -0.592,2.225 -0.592,3.871l0,11.475Zm33.692,0l-3.555,0l0,-20.974l3.2,0l0,3.179c0.816,-1.487 1.57,-2.468 2.261,-2.942c0.691,-0.474 1.452,-0.711 2.281,-0.711c1.198,0 2.416,0.382 3.654,1.145l-1.225,3.298c-0.869,-0.513 -1.738,-0.77 -2.607,-0.77c-0.776,0 -1.474,0.234 -2.093,0.701c-0.619,0.468 -1.06,1.116 -1.323,1.946c-0.395,1.263 -0.593,2.646 -0.593,4.147l0,10.981Zm-67.424,0l-3.555,0l0,-20.974l3.199,0l0,3.179c0.817,-1.487 1.57,-2.468 2.262,-2.942c0.691,-0.474 1.451,-0.711 2.281,-0.711c1.198,0 2.416,0.382 3.653,1.145l-1.224,3.298c-0.869,-0.513 -1.738,-0.77 -2.607,-0.77c-0.777,0 -1.475,0.234 -2.094,0.701c-0.618,0.468 -1.059,1.116 -1.323,1.946c-0.395,1.263 -0.592,2.646 -0.592,4.147l0,10.981Zm-89.07,-10.527c-1.29,0.527 -3.226,0.974 -5.806,1.343c-1.462,0.211 -2.495,0.448 -3.101,0.711c-0.606,0.263 -1.073,0.649 -1.402,1.155c-0.33,0.507 -0.494,1.07 -0.494,1.689c0,0.948 0.359,1.738 1.076,2.37c0.718,0.632 1.768,0.948 3.15,0.948c1.37,0 2.587,-0.3 3.654,-0.899c1.066,-0.599 1.85,-1.418 2.35,-2.459c0.382,-0.803 0.573,-1.988 0.573,-3.554l0,-1.304Zm192.181,-0.118c0,2.514 0.343,4.331 1.027,5.45c1.12,1.831 2.634,2.746 4.543,2.746c1.553,0 2.896,-0.675 4.029,-2.025c1.132,-1.349 1.698,-3.36 1.698,-6.033c0,-2.739 -0.543,-4.76 -1.629,-6.063c-1.086,-1.304 -2.4,-1.955 -3.94,-1.955c-1.554,0 -2.897,0.674 -4.029,2.024c-1.132,1.349 -1.699,3.301 -1.699,5.856Zm21.587,0.158c0,2.686 0.586,4.697 1.757,6.033c1.172,1.336 2.647,2.005 4.424,2.005c1.764,0 3.232,-0.672 4.404,-2.015c1.172,-1.343 1.758,-3.39 1.758,-6.142c0,-2.594 -0.589,-4.559 -1.768,-5.895c-1.178,-1.336 -2.643,-2.005 -4.394,-2.005c-1.777,0 -3.252,0.665 -4.424,1.995c-1.171,1.33 -1.757,3.338 -1.757,6.024Zm355.574,5.291l-277.795,0l0,-11.338l266.456,0l0,-255.118l-873.07,0l0,255.118l266.456,0l0,11.338l-266.456,0l-11.339,0l0,-266.456l0,-11.339l895.748,0l0,277.795Zm-400.208,-7.306l11.711,0c-0.158,-1.764 -0.605,-3.087 -1.343,-3.969c-1.132,-1.37 -2.6,-2.054 -4.404,-2.054c-1.632,0 -3.005,0.546 -4.118,1.639c-1.112,1.093 -1.728,2.554 -1.846,4.384Zm-302.057,-125.997l6.177,1.56c-1.295,5.073 -3.624,8.941 -6.989,11.605c-3.364,2.663 -7.476,3.995 -12.337,3.995c-5.03,0 -9.121,-1.024 -12.273,-3.072c-3.152,-2.048 -5.551,-5.015 -7.196,-8.899c-1.645,-3.884 -2.467,-8.055 -2.467,-12.512c0,-4.861 0.928,-9.101 2.786,-12.719c1.857,-3.619 4.499,-6.368 7.927,-8.247c3.428,-1.878 7.201,-2.817 11.319,-2.817c4.669,0 8.596,1.188 11.78,3.566c3.184,2.377 5.402,5.72 6.654,10.029l-6.081,1.432c-1.083,-3.396 -2.653,-5.868 -4.712,-7.418c-2.059,-1.549 -4.649,-2.324 -7.769,-2.324c-3.587,0 -6.585,0.86 -8.994,2.579c-2.409,1.719 -4.102,4.027 -5.078,6.925c-0.976,2.897 -1.465,5.884 -1.465,8.962c0,3.969 0.579,7.434 1.735,10.395c1.157,2.961 2.956,5.174 5.397,6.638c2.441,1.465 5.084,2.197 7.928,2.197c3.459,0 6.389,-0.997 8.787,-2.993c2.398,-1.995 4.022,-4.956 4.871,-8.882Zm417.111,16.364l-5.317,0l0,-46.674l5.731,0l0,16.651c2.419,-3.035 5.508,-4.553 9.264,-4.553c2.081,0 4.049,0.419 5.906,1.258c1.858,0.838 3.386,2.016 4.585,3.534c1.199,1.517 2.139,3.348 2.818,5.492c0.679,2.144 1.019,4.436 1.019,6.877c0,5.794 -1.433,10.273 -4.299,13.436c-2.865,3.162 -6.304,4.743 -10.315,4.743c-3.99,0 -7.121,-1.666 -9.392,-4.998l0,4.234Zm-340.508,0l-5.126,0l0,-4.966c-2.632,3.82 -6.209,5.73 -10.73,5.73c-1.995,0 -3.857,-0.382 -5.587,-1.146c-1.73,-0.764 -3.014,-1.724 -3.853,-2.881c-0.838,-1.157 -1.427,-2.574 -1.767,-4.25c-0.233,-1.125 -0.35,-2.908 -0.35,-5.349l0,-20.95l5.731,0l0,18.753c0,2.993 0.117,5.009 0.35,6.049c0.361,1.507 1.125,2.691 2.292,3.55c1.168,0.86 2.611,1.29 4.33,1.29c1.72,0 3.333,-0.441 4.84,-1.322c1.507,-0.881 2.573,-2.08 3.2,-3.597c0.626,-1.518 0.939,-3.72 0.939,-6.607l0,-18.116l5.731,0l0,33.812Zm253.717,0l-5.126,0l0,-4.966c-2.632,3.82 -6.208,5.73 -10.729,5.73c-1.995,0 -3.858,-0.382 -5.588,-1.146c-1.73,-0.764 -3.014,-1.724 -3.852,-2.881c-0.839,-1.157 -1.428,-2.574 -1.767,-4.25c-0.234,-1.125 -0.35,-2.908 -0.35,-5.349l0,-20.95l5.73,0l0,18.753c0,2.993 0.117,5.009 0.351,6.049c0.36,1.507 1.125,2.691 2.292,3.55c1.167,0.86 2.611,1.29 4.33,1.29c1.719,0 3.332,-0.441 4.839,-1.322c1.507,-0.881 2.574,-2.08 3.2,-3.597c0.626,-1.518 0.939,-3.72 0.939,-6.607l0,-18.116l5.731,0l0,33.812Zm115.636,-16.906c0,-6.261 1.74,-10.899 5.221,-13.913c2.908,-2.504 6.453,-3.757 10.634,-3.757c4.649,0 8.448,1.523 11.398,4.569c2.951,3.046 4.426,7.254 4.426,12.624c0,4.351 -0.653,7.774 -1.958,10.268c-1.306,2.494 -3.205,4.43 -5.699,5.81c-2.494,1.38 -5.216,2.069 -8.167,2.069c-4.733,0 -8.559,-1.517 -11.477,-4.552c-2.919,-3.036 -4.378,-7.408 -4.378,-13.118Zm-511.224,6.018l5.922,0.732c-0.934,3.46 -2.664,6.145 -5.189,8.055c-2.526,1.91 -5.753,2.865 -9.679,2.865c-4.946,0 -8.867,-1.522 -11.764,-4.568c-2.898,-3.046 -4.346,-7.318 -4.346,-12.815c0,-5.688 1.464,-10.103 4.393,-13.245c2.929,-3.141 6.729,-4.712 11.398,-4.712c4.521,0 8.215,1.539 11.08,4.617c2.865,3.077 4.298,7.407 4.298,12.99c0,0.339 -0.01,0.849 -0.032,1.528l-25.215,0c0.212,3.714 1.262,6.559 3.152,8.533c1.889,1.973 4.245,2.96 7.068,2.96c2.101,0 3.894,-0.551 5.38,-1.655c1.486,-1.104 2.664,-2.866 3.534,-5.285Zm194.626,-1.497l5.636,0.733c-0.616,3.884 -2.192,6.924 -4.728,9.121c-2.537,2.197 -5.652,3.295 -9.345,3.295c-4.627,0 -8.347,-1.512 -11.159,-4.536c-2.812,-3.025 -4.219,-7.36 -4.219,-13.006c0,-3.651 0.605,-6.845 1.815,-9.584c1.21,-2.738 3.051,-4.791 5.524,-6.16c2.473,-1.369 5.163,-2.054 8.071,-2.054c3.672,0 6.675,0.929 9.01,2.786c2.335,1.857 3.831,4.495 4.489,7.912l-5.571,0.859c-0.531,-2.271 -1.47,-3.979 -2.818,-5.125c-1.348,-1.147 -2.977,-1.72 -4.887,-1.72c-2.887,0 -5.232,1.035 -7.036,3.104c-1.804,2.07 -2.707,5.344 -2.707,9.823c0,4.542 0.871,7.842 2.611,9.901c1.741,2.059 4.012,3.088 6.814,3.088c2.249,0 4.128,-0.689 5.635,-2.069c1.507,-1.38 2.462,-3.502 2.865,-6.368Zm273.489,12.385l-5.126,0l0,-4.966c-2.632,3.82 -6.208,5.73 -10.729,5.73c-1.995,0 -3.858,-0.382 -5.588,-1.146c-1.73,-0.764 -3.014,-1.724 -3.852,-2.881c-0.839,-1.157 -1.428,-2.574 -1.767,-4.25c-0.234,-1.125 -0.35,-2.908 -0.35,-5.349l0,-20.95l5.731,0l0,18.753c0,2.993 0.116,5.009 0.35,6.049c0.361,1.507 1.125,2.691 2.292,3.55c1.167,0.86 2.611,1.29 4.33,1.29c1.719,0 3.332,-0.441 4.839,-1.322c1.507,-0.881 2.574,-2.08 3.2,-3.597c0.626,-1.518 0.939,-3.72 0.939,-6.607l0,-18.116l5.731,0l0,33.812Zm-36.295,0l-5.317,0l0,-4.266c-2.144,3.354 -5.296,5.03 -9.456,5.03c-2.696,0 -5.174,-0.742 -7.434,-2.228c-2.261,-1.486 -4.012,-3.561 -5.253,-6.225c-1.242,-2.663 -1.863,-5.725 -1.863,-9.185c0,-3.375 0.562,-6.436 1.687,-9.185c1.125,-2.749 2.813,-4.855 5.063,-6.32c2.25,-1.464 4.765,-2.197 7.545,-2.197c2.038,0 3.853,0.43 5.445,1.29c1.591,0.859 2.886,1.979 3.884,3.359l0,-16.747l5.699,0l0,46.674Zm244.866,0l-5.985,0c-0.595,-1.188 -0.977,-2.579 -1.146,-4.17c-2.123,1.804 -4.166,3.077 -6.129,3.82c-1.964,0.743 -4.07,1.114 -6.32,1.114c-3.714,0 -6.569,-0.907 -8.564,-2.722c-1.996,-1.814 -2.993,-4.133 -2.993,-6.956c0,-1.656 0.376,-3.168 1.13,-4.537c0.753,-1.369 1.74,-2.468 2.961,-3.295c1.22,-0.828 2.595,-1.454 4.123,-1.879c1.125,-0.297 2.823,-0.584 5.094,-0.86c4.627,-0.551 8.034,-1.209 10.22,-1.973c0.021,-0.786 0.032,-1.285 0.032,-1.497c0,-2.335 -0.541,-3.98 -1.624,-4.935c-1.464,-1.295 -3.64,-1.942 -6.527,-1.942c-2.695,0 -4.685,0.472 -5.969,1.417c-1.284,0.944 -2.234,2.616 -2.85,5.014l-5.603,-0.764c0.509,-2.398 1.348,-4.335 2.515,-5.81c1.167,-1.475 2.855,-2.611 5.062,-3.407c2.208,-0.796 4.765,-1.194 7.673,-1.194c2.887,0 5.232,0.34 7.036,1.019c1.805,0.679 3.131,1.534 3.98,2.563c0.849,1.029 1.443,2.33 1.783,3.9c0.191,0.977 0.287,2.738 0.287,5.285l0,7.641c0,5.328 0.122,8.698 0.366,10.109c0.244,1.411 0.727,2.765 1.448,4.059Zm34.545,0l-5.731,0l0,-46.674l5.731,0l0,26.616l13.563,-13.754l7.418,0l-12.926,12.545l14.231,21.267l-7.068,0l-11.175,-17.288l-4.043,3.885l0,13.403Zm-627.178,0l-5.731,0l0,-46.674l5.731,0l0,16.747c2.674,-3.099 6.049,-4.649 10.124,-4.649c2.505,0 4.68,0.494 6.527,1.481c1.847,0.987 3.168,2.35 3.964,4.091c0.796,1.74 1.194,4.266 1.194,7.577l0,21.427l-5.731,0l0,-21.427c0,-2.865 -0.621,-4.95 -1.863,-6.256c-1.241,-1.305 -2.998,-1.958 -5.269,-1.958c-1.698,0 -3.295,0.441 -4.791,1.321c-1.497,0.881 -2.563,2.075 -3.2,3.582c-0.637,1.507 -0.955,3.587 -0.955,6.24l0,18.498Zm-149.066,-41.166l-15.442,0l0,41.166l-6.176,0l0,-41.166l-15.378,0l0,-5.508l36.996,0l0,5.508Zm344.774,41.166l-5.731,0l0,-33.812l5.158,0l0,4.808c2.484,-3.715 6.071,-5.572 10.761,-5.572c2.038,0 3.911,0.366 5.62,1.099c1.708,0.732 2.987,1.692 3.836,2.881c0.849,1.189 1.444,2.6 1.783,4.234c0.213,1.062 0.319,2.919 0.319,5.572l0,20.79l-5.731,0l0,-20.567c0,-2.335 -0.223,-4.081 -0.669,-5.237c-0.446,-1.157 -1.236,-2.08 -2.372,-2.77c-1.135,-0.69 -2.467,-1.035 -3.995,-1.035c-2.441,0 -4.548,0.775 -6.32,2.324c-1.773,1.55 -2.659,4.489 -2.659,8.819l0,18.466Zm-123.245,0l-5.731,0l0,-33.812l5.158,0l0,5.126c1.316,-2.398 2.531,-3.979 3.646,-4.744c1.114,-0.764 2.34,-1.146 3.677,-1.146c1.931,0 3.895,0.616 5.89,1.847l-1.974,5.317c-1.401,-0.828 -2.802,-1.242 -4.203,-1.242c-1.252,0 -2.377,0.377 -3.375,1.13c-0.997,0.754 -1.708,1.799 -2.133,3.136c-0.636,2.038 -0.955,4.267 -0.955,6.686l0,17.702Zm207.584,0l-7.036,0l-5.444,-14.136l-19.517,0l-5.126,14.136l-6.559,0l17.925,-46.674l6.654,0l19.103,46.674Zm246.809,0l-6.177,0l0,-46.674l17.607,0c3.099,0 5.465,0.148 7.1,0.446c2.292,0.382 4.213,1.109 5.762,2.18c1.55,1.072 2.797,2.574 3.741,4.506c0.945,1.931 1.417,4.054 1.417,6.367c0,3.969 -1.263,7.328 -3.789,10.077c-2.525,2.749 -7.089,4.123 -13.69,4.123l-11.971,0l0,18.975Zm-345.602,0l-5.731,0l0,-33.812l5.731,0l0,33.812Zm290.045,0l-5.731,0l0,-33.812l5.157,0l0,4.808c2.484,-3.715 6.071,-5.572 10.762,-5.572c2.037,0 3.91,0.366 5.619,1.099c1.709,0.732 2.988,1.692 3.837,2.881c0.849,1.189 1.443,2.6 1.783,4.234c0.212,1.062 0.318,2.919 0.318,5.572l0,20.79l-5.731,0l0,-20.567c0,-2.335 -0.223,-4.081 -0.669,-5.237c-0.445,-1.157 -1.236,-2.08 -2.371,-2.77c-1.136,-0.69 -2.468,-1.035 -3.996,-1.035c-2.441,0 -4.548,0.775 -6.32,2.324c-1.772,1.55 -2.658,4.489 -2.658,8.819l0,18.466Zm-609.031,0l-5.731,0l0,-46.674l5.731,0l0,16.747c2.675,-3.099 6.049,-4.649 10.125,-4.649c2.504,0 4.68,0.494 6.527,1.481c1.846,0.987 3.167,2.35 3.963,4.091c0.796,1.74 1.194,4.266 1.194,7.577l0,21.427l-5.731,0l0,-21.427c0,-2.865 -0.62,-4.95 -1.862,-6.256c-1.242,-1.305 -2.998,-1.958 -5.269,-1.958c-1.698,0 -3.295,0.441 -4.792,1.321c-1.496,0.881 -2.563,2.075 -3.2,3.582c-0.636,1.507 -0.955,3.587 -0.955,6.24l0,18.498Zm743.101,0l-5.731,0l0,-33.812l5.157,0l0,5.126c1.316,-2.398 2.532,-3.979 3.646,-4.744c1.114,-0.764 2.34,-1.146 3.677,-1.146c1.932,0 3.895,0.616 5.89,1.847l-1.974,5.317c-1.401,-0.828 -2.801,-1.242 -4.202,-1.242c-1.253,0 -2.378,0.377 -3.375,1.13c-0.998,0.754 -1.709,1.799 -2.133,3.136c-0.637,2.038 -0.955,4.267 -0.955,6.686l0,17.702Zm-478.526,0l-5.731,0l0,-46.674l5.731,0l0,16.747c2.674,-3.099 6.049,-4.649 10.124,-4.649c2.505,0 4.68,0.494 6.527,1.481c1.846,0.987 3.168,2.35 3.964,4.091c0.796,1.74 1.194,4.266 1.194,7.577l0,21.427l-5.731,0l0,-21.427c0,-2.865 -0.621,-4.95 -1.863,-6.256c-1.241,-1.305 -2.998,-1.958 -5.269,-1.958c-1.698,0 -3.295,0.441 -4.792,1.321c-1.496,0.881 -2.563,2.075 -3.199,3.582c-0.637,1.507 -0.955,3.587 -0.955,6.24l0,18.498Zm458.181,-16.969c-2.08,0.849 -5.2,1.57 -9.36,2.165c-2.356,0.339 -4.023,0.721 -4.999,1.146c-0.976,0.424 -1.73,1.045 -2.26,1.862c-0.531,0.818 -0.796,1.725 -0.796,2.723c0,1.528 0.578,2.801 1.735,3.82c1.157,1.019 2.849,1.528 5.078,1.528c2.207,0 4.171,-0.483 5.89,-1.448c1.719,-0.966 2.982,-2.287 3.789,-3.964c0.615,-1.295 0.923,-3.205 0.923,-5.731l0,-2.101Zm-260.69,0.095c0,4.33 0.913,7.567 2.738,9.711c1.825,2.144 3.98,3.215 6.463,3.215c2.505,0 4.633,-1.024 6.384,-3.072c1.751,-2.048 2.626,-5.174 2.626,-9.376c0,-4.627 -0.891,-8.023 -2.674,-10.188c-1.783,-2.165 -3.98,-3.248 -6.59,-3.248c-2.548,0 -4.675,1.04 -6.384,3.12c-1.709,2.08 -2.563,5.36 -2.563,9.838Zm108.727,-0.032c0,4.33 0.945,7.573 2.834,9.727c1.889,2.154 4.266,3.231 7.131,3.231c2.845,0 5.211,-1.082 7.1,-3.247c1.889,-2.165 2.834,-5.466 2.834,-9.902c0,-4.181 -0.95,-7.349 -2.85,-9.503c-1.899,-2.155 -4.261,-3.232 -7.084,-3.232c-2.865,0 -5.242,1.072 -7.131,3.216c-1.889,2.144 -2.834,5.38 -2.834,9.71Zm-34.799,-0.254c0,4.054 0.552,6.983 1.656,8.787c1.804,2.95 4.245,4.425 7.322,4.425c2.505,0 4.67,-1.087 6.495,-3.263c1.826,-2.176 2.738,-5.418 2.738,-9.726c0,-4.415 -0.875,-7.673 -2.626,-9.775c-1.751,-2.101 -3.869,-3.152 -6.352,-3.152c-2.505,0 -4.67,1.088 -6.495,3.264c-1.825,2.175 -2.738,5.322 -2.738,9.44Zm-148.429,-2.006l15.823,0l-4.871,-12.926c-1.486,-3.927 -2.589,-7.153 -3.311,-9.679c-0.594,2.993 -1.433,5.964 -2.515,8.914l-5.126,13.691Zm-352.702,-0.987l18.88,0c-0.255,-2.844 -0.976,-4.977 -2.165,-6.4c-1.825,-2.207 -4.192,-3.311 -7.1,-3.311c-2.632,0 -4.845,0.881 -6.638,2.643c-1.794,1.762 -2.786,4.118 -2.977,7.068Zm629.725,-4.33l12.067,0c3.99,0 6.823,-0.743 8.5,-2.229c1.677,-1.486 2.516,-3.576 2.516,-6.272c0,-1.953 -0.494,-3.624 -1.481,-5.014c-0.987,-1.391 -2.287,-2.309 -3.9,-2.754c-1.04,-0.276 -2.961,-0.414 -5.763,-0.414l-11.939,0l0,16.683Zm-345.602,-15.601l-5.731,0l0,-6.59l5.731,0l0,6.59Z" style="fill:#fff;"/></svg>
