<?xml version="1.0" encoding="UTF-8" standalone="no"?><!DOCTYPE svg PUBLIC "-//W3C//DTD SVG 1.1//EN" "http://www.w3.org/Graphics/SVG/1.1/DTD/svg11.dtd"><svg width="100%" height="100%" viewBox="0 0 558 217" version="1.1" xmlns="http://www.w3.org/2000/svg" xmlns:xlink="http://www.w3.org/1999/xlink" xml:space="preserve" style="fill-rule:evenodd;clip-rule:evenodd;stroke-linejoin:round;stroke-miterlimit:1.41421;"><rect x="0" y="0" width="557.17" height="11.339" style="fill:#fff;"/><rect x="438.115" y="199.559" width="119.055" height="10.205" style="fill:#fff;"/><rect x="0.075" y="199.559" width="119.143" height="10.205" style="fill:#fff;"/><rect x="545.832" y="0" width="11.339" height="209.761" style="fill:#fff;"/><rect x="0" y="8.931" width="11.218" height="200.833" style="fill:#fff;"/><g transform="matrix(0.198547,0,0,0.198547,-429.008,-103.126)"><text x="2875.34px" y="1575.9px" style="font-family:'Delius-Regular', 'Delius';font-size:150px;fill:none;">a ch<tspan x="3158.84px 3246.44px 3306.29px " y="1575.9px 1575.9px 1575.9px ">urc</tspan>h in the park</text><text x="2875.34px" y="1575.9px" style="font-family:'Delius-Regular', 'Delius';font-size:150px;fill:#fff;">a ch<tspan x="3158.84px 3246.44px 3306.29px " y="1575.9px 1575.9px 1575.9px ">urc</tspan>h in the park</text></g><text x="78.777px" y="130.394px" style="font-family:'Delius-Regular', 'Delius';font-size:55.708px;fill:#fff;">Au<tspan x="146.853px " y="130.394px ">d</tspan>ubon Bap<tspan x="419.377px " y="130.394px ">t</tspan>ist</text><rect x="0" y="0" width="557.17" height="11.339" style="fill:#fff;"/><rect x="438.115" y="199.559" width="119.055" height="10.205" style="fill:#fff;"/><rect x="0.075" y="199.559" width="119.143" height="10.205" style="fill:#fff;"/><rect x="545.832" y="0" width="11.339" height="209.761" style="fill:#fff;"/><rect x="0" y="8.931" width="11.218" height="200.833" style="fill:#fff;"/><g transform="matrix(0.198547,0,0,0.198547,-429.008,-103.126)"><text x="2875.34px" y="1575.9px" style="font-family:'Delius-Regular', 'Delius';font-size:150px;fill:none;">a ch<tspan x="3158.84px 3246.44px 3306.29px " y="1575.9px 1575.9px 1575.9px ">urc</tspan>h in the park</text><text x="2875.34px" y="1575.9px" style="font-family:'Delius-Regular', 'Delius';font-size:150px;fill:#fff;">a ch<tspan x="3158.84px 3246.44px 3306.29px " y="1575.9px 1575.9px 1575.9px ">urc</tspan>h in the park</text></g><text x="78.777px" y="130.394px" style="font-family:'Delius-Regular', 'Delius';font-size:55.708px;fill:#fff;">Au<tspan x="146.853px " y="130.394px ">d</tspan>ubon Bap<tspan x="419.377px " y="130.394px ">t</tspan>ist</text><rect x="0" y="0" width="557.17" height="11.339" style="fill:#fff;"/><rect x="438.115" y="199.559" width="119.055" height="10.205" style="fill:#fff;"/><rect x="0.075" y="199.559" width="119.143" height="10.205" style="fill:#fff;"/><rect x="545.832" y="0" width="11.339" height="209.761" style="fill:#fff;"/><rect x="0" y="8.931" width="11.218" height="200.833" style="fill:#fff;"/><g transform="matrix(0.198547,0,0,0.198547,-429.008,-103.126)"><text x="2875.34px" y="1575.9px" style="font-family:'Delius-Regular', 'Delius';font-size:150px;fill:none;">a ch<tspan x="3158.84px 3246.44px 3306.29px " y="1575.9px 1575.9px 1575.9px ">urc</tspan>h in the park</text><text x="2875.34px" y="1575.9px" style="font-family:'Delius-Regular', 'Delius';font-size:150px;fill:#fff;">a ch<tspan x="3158.84px 3246.44px 3306.29px " y="1575.9px 1575.9px 1575.9px ">urc</tspan>h in the park</text></g><text x="78.777px" y="130.394px" style="font-family:'Delius-Regular', 'Delius';font-size:55.708px;fill:#fff;">Au<tspan x="146.853px " y="130.394px ">d</tspan>ubon Bap<tspan x="419.377px " y="130.394px ">t</tspan>ist</text><rect x="0" y="0" width="557.17" height="11.339" style="fill:#fff;"/><rect x="438.115" y="199.559" width="119.055" height="10.205" style="fill:#fff;"/><rect x="0.075" y="199.559" width="119.143" height="10.205" style="fill:#fff;"/><rect x="545.832" y="0" width="11.339" height="209.761" style="fill:#fff;"/><rect x="0" y="8.931" width="11.218" height="200.833" style="fill:#fff;"/><g transform="matrix(0.198547,0,0,0.198547,-429.008,-103.126)"><text x="2875.34px" y="1575.9px" style="font-family:'Delius-Regular', 'Delius';font-size:150px;fill:none;">a ch<tspan x="3158.84px 3246.44px 3306.29px " y="1575.9px 1575.9px 1575.9px ">urc</tspan>h in the park</text><text x="2875.34px" y="1575.9px" style="font-family:'Delius-Regular', 'Delius';font-size:150px;fill:#fff;">a ch<tspan x="3158.84px 3246.44px 3306.29px " y="1575.9px 1575.9px 1575.9px ">urc</tspan>h in the park</text></g><text x="78.777px" y="130.394px" style="font-family:'Delius-Regular', 'Delius';font-size:55.708px;fill:#fff;">Au<tspan x="146.853px " y="130.394px ">d</tspan>ubon Bap<tspan x="419.377px " y="130.394px ">t</tspan>ist</text><rect x="0" y="0" width="557.17" height="11.339" style="fill:#fff;"/><rect x="438.115" y="199.559" width="119.055" height="10.205" style="fill:#fff;"/><rect x="0.075" y="199.559" width="119.143" height="10.205" style="fill:#fff;"/><rect x="545.832" y="0" width="11.339" height="209.761" style="fill:#fff;"/><rect x="0" y="8.931" width="11.218" height="200.833" style="fill:#fff;"/><g transform="matrix(0.198547,0,0,0.198547,-429.008,-103.126)"><text x="2875.34px" y="1575.9px" style="font-family:'Delius-Regular', 'Delius';font-size:150px;fill:none;">a ch<tspan x="3158.84px 3246.44px 3306.29px " y="1575.9px 1575.9px 1575.9px ">urc</tspan>h in the park</text><text x="2875.34px" y="1575.9px" style="font-family:'Delius-Regular', 'Delius';font-size:150px;fill:#fff;">a ch<tspan x="3158.84px 3246.44px 3306.29px " y="1575.9px 1575.9px 1575.9px ">urc</tspan>h in the park</text></g><text x="78.777px" y="130.394px" style="font-family:'Delius-Regular', 'Delius';font-size:55.708px;fill:#fff;">Au<tspan x="146.853px " y="130.394px ">d</tspan>ubon Bap<tspan x="419.377px " y="130.394px ">t</tspan>ist</text><rect x="0" y="0" width="557.17" height="11.339" style="fill:#fff;"/><rect x="438.115" y="199.559" width="119.055" height="10.205" style="fill:#fff;"/><rect x="0.075" y="199.559" width="119.143" height="10.205" style="fill:#fff;"/><rect x="545.832" y="0" width="11.339" height="209.761" style="fill:#fff;"/><rect x="0" y="8.931" width="11.218" height="200.833" style="fill:#fff;"/><g transform="matrix(0.198547,0,0,0.198547,-429.008,-103.126)"><text x="2875.34px" y="1575.9px" style="font-family:'Delius-Regular', 'Delius';font-size:150px;fill:none;">a ch<tspan x="3158.84px 3246.44px 3306.29px " y="1575.9px 1575.9px 1575.9px ">urc</tspan>h in the park</text><text x="2875.34px" y="1575.9px" style="font-family:'Delius-Regular', 'Delius';font-size:150px;fill:#fff;">a ch<tspan x="3158.84px 3246.44px 3306.29px " y="1575.9px 1575.9px 1575.9px ">urc</tspan>h in the park</text></g><text x="78.777px" y="130.394px" style="font-family:'Delius-Regular', 'Delius';font-size:55.708px;fill:#fff;">Au<tspan x="146.853px " y="130.394px ">d</tspan>ubon Bap<tspan x="419.377px " y="130.394px ">t</tspan>ist</text><rect x="0" y="0" width="557.17" height="11.339" style="fill:#fff;"/><rect x="438.115" y="199.559" width="119.055" height="10.205" style="fill:#fff;"/><rect x="0.075" y="199.559" width="119.143" height="10.205" style="fill:#fff;"/><rect x="545.832" y="0" width="11.339" height="209.761" style="fill:#fff;"/><rect x="0" y="8.931" width="11.218" height="200.833" style="fill:#fff;"/><g transform="matrix(0.198547,0,0,0.198547,-429.008,-103.126)"><text x="2875.34px" y="1575.9px" style="font-family:'Delius-Regular', 'Delius';font-size:150px;fill:none;">a ch<tspan x="3158.84px 3246.44px 3306.29px " y="1575.9px 1575.9px 1575.9px ">urc</tspan>h in the park</text><text x="2875.34px" y="1575.9px" style="font-family:'Delius-Regular', 'Delius';font-size:150px;fill:#fff;">a ch<tspan x="3158.84px 3246.44px 3306.29px " y="1575.9px 1575.9px 1575.9px ">urc</tspan>h in the park</text></g><text x="78.777px" y="130.394px" style="font-family:'Delius-Regular', 'Delius';font-size:55.708px;fill:#fff;">Au<tspan x="146.853px " y="130.394px ">d</tspan>ubon Bap<tspan x="419.377px " y="130.394px ">t</tspan>ist</text></svg>