<?xml version="1.0" encoding="UTF-8" standalone="no"?><!DOCTYPE svg PUBLIC "-//W3C//DTD SVG 1.1//EN" "http://www.w3.org/Graphics/SVG/1.1/DTD/svg11.dtd"><svg width="100%" height="100%" viewBox="0 0 794 267" version="1.1" xmlns="http://www.w3.org/2000/svg" xmlns:xlink="http://www.w3.org/1999/xlink" xml:space="preserve" style="fill-rule:evenodd;clip-rule:evenodd;stroke-linejoin:round;stroke-miterlimit:1.41421;"><rect x="0" y="0" width="793.701" height="11.339" style="fill:#fff;"/><rect x="612.283" y="245.14" width="181.417" height="10.431" style="fill:#fff;"/><rect x="0.106" y="245.144" width="181.311" height="10.431" style="fill:#fff;"/><rect x="782.362" y="0" width="11.339" height="255.572" style="fill:#fff;"/><rect x="0" y="0" width="11.339" height="255.572" style="fill:#fff;"/><g transform="matrix(0.24,0,0,0.24,-453.7,-120.039)"><text x="2875.34px" y="1575.9px" style="font-family:'Delius-Regular', 'Delius';font-size:150px;fill:none;">a ch<tspan x="3158.84px 3246.44px 3306.29px " y="1575.9px 1575.9px 1575.9px ">urc</tspan>h in the park</text><text x="2875.34px" y="1575.9px" style="font-family:'Delius-Regular', 'Delius';font-size:150px;fill:#fff;">a ch<tspan x="3158.84px 3246.44px 3306.29px " y="1575.9px 1575.9px 1575.9px ">urc</tspan>h in the park</text></g><text x="190.583px" y="156.003px" style="font-family:'Delius-Regular', 'Delius';font-size:55.708px;fill:#fff;">Au<tspan x="258.659px " y="156.003px ">d</tspan>ubon Bap<tspan x="531.183px " y="156.003px ">t</tspan>ist</text><rect x="0" y="0" width="793.701" height="11.339" style="fill:#fff;"/><rect x="612.283" y="245.14" width="181.417" height="10.431" style="fill:#fff;"/><rect x="0.106" y="245.144" width="181.311" height="10.431" style="fill:#fff;"/><rect x="782.362" y="0" width="11.339" height="255.572" style="fill:#fff;"/><rect x="0" y="0" width="11.339" height="255.572" style="fill:#fff;"/><g transform="matrix(0.24,0,0,0.24,-453.7,-120.039)"><text x="2875.34px" y="1575.9px" style="font-family:'Delius-Regular', 'Delius';font-size:150px;fill:none;">a ch<tspan x="3158.84px 3246.44px 3306.29px " y="1575.9px 1575.9px 1575.9px ">urc</tspan>h in the park</text><text x="2875.34px" y="1575.9px" style="font-family:'Delius-Regular', 'Delius';font-size:150px;fill:#fff;">a ch<tspan x="3158.84px 3246.44px 3306.29px " y="1575.9px 1575.9px 1575.9px ">urc</tspan>h in the park</text></g><text x="190.583px" y="156.003px" style="font-family:'Delius-Regular', 'Delius';font-size:55.708px;fill:#fff;">Au<tspan x="258.659px " y="156.003px ">d</tspan>ubon Bap<tspan x="531.183px " y="156.003px ">t</tspan>ist</text><rect x="0" y="0" width="793.701" height="11.339" style="fill:#fff;"/><rect x="612.283" y="245.14" width="181.417" height="10.431" style="fill:#fff;"/><rect x="0.106" y="245.144" width="181.311" height="10.431" style="fill:#fff;"/><rect x="782.362" y="0" width="11.339" height="255.572" style="fill:#fff;"/><rect x="0" y="0" width="11.339" height="255.572" style="fill:#fff;"/><g transform="matrix(0.24,0,0,0.24,-453.7,-120.039)"><text x="2875.34px" y="1575.9px" style="font-family:'Delius-Regular', 'Delius';font-size:150px;fill:none;">a ch<tspan x="3158.84px 3246.44px 3306.29px " y="1575.9px 1575.9px 1575.9px ">urc</tspan>h in the park</text><text x="2875.34px" y="1575.9px" style="font-family:'Delius-Regular', 'Delius';font-size:150px;fill:#fff;">a ch<tspan x="3158.84px 3246.44px 3306.29px " y="1575.9px 1575.9px 1575.9px ">urc</tspan>h in the park</text></g><text x="190.583px" y="156.003px" style="font-family:'Delius-Regular', 'Delius';font-size:55.708px;fill:#fff;">Au<tspan x="258.659px " y="156.003px ">d</tspan>ubon Bap<tspan x="531.183px " y="156.003px ">t</tspan>ist</text><rect x="0" y="0" width="793.701" height="11.339" style="fill:#fff;"/><rect x="612.283" y="245.14" width="181.417" height="10.431" style="fill:#fff;"/><rect x="0.106" y="245.144" width="181.311" height="10.431" style="fill:#fff;"/><rect x="782.362" y="0" width="11.339" height="255.572" style="fill:#fff;"/><rect x="0" y="0" width="11.339" height="255.572" style="fill:#fff;"/><g transform="matrix(0.24,0,0,0.24,-453.7,-120.039)"><text x="2875.34px" y="1575.9px" style="font-family:'Delius-Regular', 'Delius';font-size:150px;fill:none;">a ch<tspan x="3158.84px 3246.44px 3306.29px " y="1575.9px 1575.9px 1575.9px ">urc</tspan>h in the park</text><text x="2875.34px" y="1575.9px" style="font-family:'Delius-Regular', 'Delius';font-size:150px;fill:#fff;">a ch<tspan x="3158.84px 3246.44px 3306.29px " y="1575.9px 1575.9px 1575.9px ">urc</tspan>h in the park</text></g><text x="190.583px" y="156.003px" style="font-family:'Delius-Regular', 'Delius';font-size:55.708px;fill:#fff;">Au<tspan x="258.659px " y="156.003px ">d</tspan>ubon Bap<tspan x="531.183px " y="156.003px ">t</tspan>ist</text><rect x="0" y="0" width="793.701" height="11.339" style="fill:#fff;"/><rect x="612.283" y="245.14" width="181.417" height="10.431" style="fill:#fff;"/><rect x="0.106" y="245.144" width="181.311" height="10.431" style="fill:#fff;"/><rect x="782.362" y="0" width="11.339" height="255.572" style="fill:#fff;"/><rect x="0" y="0" width="11.339" height="255.572" style="fill:#fff;"/><g transform="matrix(0.24,0,0,0.24,-453.7,-120.039)"><text x="2875.34px" y="1575.9px" style="font-family:'Delius-Regular', 'Delius';font-size:150px;fill:none;">a ch<tspan x="3158.84px 3246.44px 3306.29px " y="1575.9px 1575.9px 1575.9px ">urc</tspan>h in the park</text><text x="2875.34px" y="1575.9px" style="font-family:'Delius-Regular', 'Delius';font-size:150px;fill:#fff;">a ch<tspan x="3158.84px 3246.44px 3306.29px " y="1575.9px 1575.9px 1575.9px ">urc</tspan>h in the park</text></g><text x="190.583px" y="156.003px" style="font-family:'Delius-Regular', 'Delius';font-size:55.708px;fill:#fff;">Au<tspan x="258.659px " y="156.003px ">d</tspan>ubon Bap<tspan x="531.183px " y="156.003px ">t</tspan>ist</text><rect x="0" y="0" width="793.701" height="11.339" style="fill:#fff;"/><rect x="612.283" y="245.14" width="181.417" height="10.431" style="fill:#fff;"/><rect x="0.106" y="245.144" width="181.311" height="10.431" style="fill:#fff;"/><rect x="782.362" y="0" width="11.339" height="255.572" style="fill:#fff;"/><rect x="0" y="0" width="11.339" height="255.572" style="fill:#fff;"/><g transform="matrix(0.24,0,0,0.24,-453.7,-120.039)"><text x="2875.34px" y="1575.9px" style="font-family:'Delius-Regular', 'Delius';font-size:150px;fill:none;">a ch<tspan x="3158.84px 3246.44px 3306.29px " y="1575.9px 1575.9px 1575.9px ">urc</tspan>h in the park</text><text x="2875.34px" y="1575.9px" style="font-family:'Delius-Regular', 'Delius';font-size:150px;fill:#fff;">a ch<tspan x="3158.84px 3246.44px 3306.29px " y="1575.9px 1575.9px 1575.9px ">urc</tspan>h in the park</text></g><text x="190.583px" y="156.003px" style="font-family:'Delius-Regular', 'Delius';font-size:55.708px;fill:#fff;">Au<tspan x="258.659px " y="156.003px ">d</tspan>ubon Bap<tspan x="531.183px " y="156.003px ">t</tspan>ist</text><rect x="0" y="0" width="793.701" height="11.339" style="fill:#fff;"/><rect x="612.283" y="245.14" width="181.417" height="10.431" style="fill:#fff;"/><rect x="0.106" y="245.144" width="181.311" height="10.431" style="fill:#fff;"/><rect x="782.362" y="0" width="11.339" height="255.572" style="fill:#fff;"/><rect x="0" y="0" width="11.339" height="255.572" style="fill:#fff;"/><g transform="matrix(0.24,0,0,0.24,-453.7,-120.039)"><text x="2875.34px" y="1575.9px" style="font-family:'Delius-Regular', 'Delius';font-size:150px;fill:none;">a ch<tspan x="3158.84px 3246.44px 3306.29px " y="1575.9px 1575.9px 1575.9px ">urc</tspan>h in the park</text><text x="2875.34px" y="1575.9px" style="font-family:'Delius-Regular', 'Delius';font-size:150px;fill:#fff;">a ch<tspan x="3158.84px 3246.44px 3306.29px " y="1575.9px 1575.9px 1575.9px ">urc</tspan>h in the park</text></g><text x="190.583px" y="156.003px" style="font-family:'Delius-Regular', 'Delius';font-size:55.708px;fill:#fff;">Au<tspan x="258.659px " y="156.003px ">d</tspan>ubon Bap<tspan x="531.183px " y="156.003px ">t</tspan>ist</text></svg>