<?xml version="1.0" encoding="UTF-8" standalone="no"?><!DOCTYPE svg PUBLIC "-//W3C//DTD SVG 1.1//EN" "http://www.w3.org/Graphics/SVG/1.1/DTD/svg11.dtd"><svg width="100%" height="100%" viewBox="0 0 57 86" version="1.1" xmlns="http://www.w3.org/2000/svg" xmlns:xlink="http://www.w3.org/1999/xlink" xml:space="preserve" style="fill-rule:evenodd;clip-rule:evenodd;stroke-linejoin:round;stroke-miterlimit:1.41421;"><rect id="Artboard1" x="0" y="0" width="56.693" height="85.039" style="fill:none;"/><clipPath id="_clip1"><rect x="0" y="0" width="56.693" height="85.039"/></clipPath><g clip-path="url(#_clip1)"><path d="M28.346,85.039c0,0 -28.346,-39.685 -28.346,-56.693c0,-15.644 12.702,-28.346 28.346,-28.346c15.645,0 28.347,12.702 28.347,28.346c0,17.008 -28.347,56.693 -28.347,56.693Zm-0.318,-74.173c9.055,0 16.406,7.092 16.406,15.827c0,8.735 -7.351,15.827 -16.406,15.827c-9.055,0 -16.406,-7.092 -16.406,-15.827c0,-8.735 7.351,-15.827 16.406,-15.827Z" style="fill:#720101;"/></g></svg>